# xmcd
#
# Track frame offsets:
# 150
# 19537
# 41232
# 65355
# 82977
# 99547
#
# Disc length: 1560 seconds
#
#
# Revision: 2
# Processed by: cddbd v1.5.1PL0 Copyright (c) Steve Scherf et al.
# Submitted via: FreeRIP 2.91 
#
DISCID=41061606
DTITLE=Various Artist - Pop/Country spring '99
DYEAR=1900
DGENRE=
TTITLE0=Swirl 360 - Candy in the Sun
TTITLE1=Nichle Nordeman - To Know You
TTITLE2=Jeff Black - Birmingham Road
TTITLE3=Allison Moorer - Alabama Song
TTITLE4=Deryl Dodd - A Bitter End
TTITLE5=Heather Myles - True Love
EXTD=
EXTT0=
EXTT1=
EXTT2=
EXTT3=
EXTT4=
EXTT5=
PLAYORDER=
